<svg width="16" height="16" xmlns="http://www.w3.org/2000/svg"  fill="white">
 <g>
  <title>Layer 1</title>
  <path stroke="null" fill-rule="evenodd" d="m0,0l0.14894,-0.25532l-0.17021,16.53191l16.2766,-0.08511l-0.25532,-0.19149l-16,0l0,-16zm10,3.5a0.5,0.5 0 0 1 0.5,-0.5l4,0a0.5,0.5 0 0 1 0.5,0.5l0,4a0.5,0.5 0 0 1 -1,0l0,-2.6l-3.613,4.417a0.5,0.5 0 0 1 -0.74,0.037l-2.587,-2.587l-3.656,5.027a0.5,0.5 0 0 1 -0.808,-0.588l4,-5.5a0.5,0.5 0 0 1 0.758,-0.06l2.609,2.61l3.482,-4.256l-2.945,0a0.5,0.5 0 0 1 -0.5,-0.5z" id="svg_1"/>
 </g>

</svg>